PERFORMER "班得瑞"
TITLE "班得瑞典藏全集2 寂静山林 "
FILE "CDImage.wav" WAVE
  TRACK 01 AUDIO
    TITLE "Track01"
    PERFORMER "班得瑞"
    INDEX 01 00:00:00
  TRACK 02 AUDIO
    TITLE "Track02"
    PERFORMER "班得瑞"
    INDEX 01 03:29:40
  TRACK 03 AUDIO
    TITLE "Track03"
    PERFORMER "班得瑞"
    INDEX 01 07:13:12
  TRACK 04 AUDIO
    TITLE "Track04"
    PERFORMER "班得瑞"
    INDEX 01 12:01:42
  TRACK 05 AUDIO
    TITLE "Track05"
    PERFORMER "班得瑞"
    INDEX 01 16:04:40
  TRACK 06 AUDIO
    TITLE "Track06"
    PERFORMER "班得瑞"
    INDEX 01 19:34:67
  TRACK 07 AUDIO
    TITLE "Track07"
    PERFORMER "班得瑞"
    INDEX 01 25:23:50
  TRACK 08 AUDIO
    TITLE "Track08"
    PERFORMER "班得瑞"
    INDEX 01 30:48:22
  TRACK 09 AUDIO
    TITLE "Track09"
    PERFORMER "班得瑞"
    INDEX 01 34:21:62
  TRACK 10 AUDIO
    TITLE "Track10"
    PERFORMER "班得瑞"
    INDEX 01 38:40:67
  TRACK 11 AUDIO
    TITLE "Track11"
    PERFORMER "班得瑞"
    INDEX 01 43:17:72
  TRACK 12 AUDIO
    TITLE "Track12"
    PERFORMER "班得瑞"
    INDEX 01 47:27:32
  TRACK 13 AUDIO
    TITLE "Track13"
    PERFORMER "班得瑞"
    INDEX 01 51:20:17
  TRACK 14 AUDIO
    TITLE "Track14"
    PERFORMER "班得瑞"
    INDEX 01 55:50:30
